<svg width="56" height="56" viewBox="0 0 56 56" fill="none" xmlns="http://www.w3.org/2000/svg">
<path d="M37.7767 4.66669H18.2234C9.73002 4.66669 4.66669 9.73002 4.66669 18.2234V37.7534C4.66669 46.27 9.73002 51.3334 18.2234 51.3334H37.7534C46.2467 51.3334 51.31 46.27 51.31 37.7767V18.2234C51.3334 9.73002 46.27 4.66669 37.7767 4.66669ZM39.1534 22.6334L25.9234 35.8634C25.5967 36.19 25.1534 36.3767 24.6867 36.3767C24.22 36.3767 23.7767 36.19 23.45 35.8634L16.8467 29.26C16.17 28.5834 16.17 27.4634 16.8467 26.7867C17.5234 26.11 18.6434 26.11 19.32 26.7867L24.6867 32.1534L36.68 20.16C37.3567 19.4834 38.4767 19.4834 39.1534 20.16C39.83 20.8367 39.83 21.9334 39.1534 22.6334Z" fill="#6C89FF"/>
</svg>
